<svg width="16" height="16" viewBox="0 0 16 16" fill="none" xmlns="http://www.w3.org/2000/svg">
<path d="M3.64362 14H12.3564C13.7582 14 14.5 13.2448 14.5 11.8488V4.1449C14.5 2.74881 13.7582 2 12.3564 2H3.64362C2.24807 2 1.5 2.74881 1.5 4.1449V11.8488C1.5 13.2512 2.24807 14 3.64362 14ZM3.70648 12.5468C3.20358 12.5468 2.93956 12.293 2.93956 11.7663V6.02961C2.93956 5.49656 3.20358 5.24907 3.70648 5.24907H12.2935C12.7901 5.24907 13.0604 5.49656 13.0604 6.02961V11.7663C13.0604 12.293 12.7901 12.5468 12.2935 12.5468H3.70648ZM6.80561 7.36859H7.17021C7.4028 7.36859 7.47824 7.29878 7.47824 7.07033V6.69593C7.47824 6.46748 7.4028 6.39767 7.17021 6.39767H6.80561C6.57302 6.39767 6.49758 6.46748 6.49758 6.69593V7.07033C6.49758 7.29878 6.57302 7.36859 6.80561 7.36859ZM8.82979 7.36859H9.20068C9.42698 7.36859 9.50242 7.29878 9.50242 7.07033V6.69593C9.50242 6.46748 9.42698 6.39767 9.20068 6.39767H8.82979C8.60348 6.39767 8.52176 6.46748 8.52176 6.69593V7.07033C8.52176 7.29878 8.60348 7.36859 8.82979 7.36859ZM10.854 7.36859H11.2249C11.4512 7.36859 11.5266 7.29878 11.5266 7.07033V6.69593C11.5266 6.46748 11.4512 6.39767 11.2249 6.39767H10.854C10.6277 6.39767 10.5522 6.46748 10.5522 6.69593V7.07033C10.5522 7.29878 10.6277 7.36859 10.854 7.36859ZM4.77515 9.38022H5.14603C5.37234 9.38022 5.45406 9.31042 5.45406 9.08197V8.70756C5.45406 8.47911 5.37234 8.40931 5.14603 8.40931H4.77515C4.54884 8.40931 4.4734 8.47911 4.4734 8.70756V9.08197C4.4734 9.31042 4.54884 9.38022 4.77515 9.38022ZM6.80561 9.38022H7.17021C7.4028 9.38022 7.47824 9.31042 7.47824 9.08197V8.70756C7.47824 8.47911 7.4028 8.40931 7.17021 8.40931H6.80561C6.57302 8.40931 6.49758 8.47911 6.49758 8.70756V9.08197C6.49758 9.31042 6.57302 9.38022 6.80561 9.38022ZM8.82979 9.38022H9.20068C9.42698 9.38022 9.50242 9.31042 9.50242 9.08197V8.70756C9.50242 8.47911 9.42698 8.40931 9.20068 8.40931H8.82979C8.60348 8.40931 8.52176 8.47911 8.52176 8.70756V9.08197C8.52176 9.31042 8.60348 9.38022 8.82979 9.38022ZM10.854 9.38022H11.2249C11.4512 9.38022 11.5266 9.31042 11.5266 9.08197V8.70756C11.5266 8.47911 11.4512 8.40931 11.2249 8.40931H10.854C10.6277 8.40931 10.5522 8.47911 10.5522 8.70756V9.08197C10.5522 9.31042 10.6277 9.38022 10.854 9.38022ZM4.77515 11.3982H5.14603C5.37234 11.3982 5.45406 11.3221 5.45406 11.0936V10.7255C5.45406 10.4971 5.37234 10.4209 5.14603 10.4209H4.77515C4.54884 10.4209 4.4734 10.4971 4.4734 10.7255V11.0936C4.4734 11.3221 4.54884 11.3982 4.77515 11.3982ZM6.80561 11.3982H7.17021C7.4028 11.3982 7.47824 11.3221 7.47824 11.0936V10.7255C7.47824 10.4971 7.4028 10.4209 7.17021 10.4209H6.80561C6.57302 10.4209 6.49758 10.4971 6.49758 10.7255V11.0936C6.49758 11.3221 6.57302 11.3982 6.80561 11.3982ZM8.82979 11.3982H9.20068C9.42698 11.3982 9.50242 11.3221 9.50242 11.0936V10.7255C9.50242 10.4971 9.42698 10.4209 9.20068 10.4209H8.82979C8.60348 10.4209 8.52176 10.4971 8.52176 10.7255V11.0936C8.52176 11.3221 8.60348 11.3982 8.82979 11.3982Z" fill="black" fill-opacity="0.3"/>
</svg>
