<svg width="27" height="26" viewBox="0 0 27 26" fill="none" xmlns="http://www.w3.org/2000/svg">
<g clip-path="url(#clip0_33512_2710)">
<path d="M13.3096 24.6309C19.5508 24.6309 24.6855 19.4961 24.6855 13.2549C24.6855 7.00293 19.5508 1.86816 13.2988 1.86816C7.04688 1.86816 1.92285 7.00293 1.92285 13.2549C1.92285 19.4961 7.05762 24.6309 13.3096 24.6309ZM13.2988 9.80664C12.375 9.80664 11.6016 9.0332 11.6016 8.10938C11.6016 7.15332 12.375 6.40137 13.2988 6.40137C14.2227 6.40137 14.9854 7.15332 14.9854 8.10938C14.9854 9.0332 14.2227 9.80664 13.2988 9.80664ZM11.2578 19.3027C10.6562 19.3027 10.1836 18.8838 10.1836 18.25C10.1836 17.6807 10.6562 17.2188 11.2578 17.2188H12.4932V13.3945H11.4727C10.8604 13.3945 10.3984 12.9648 10.3984 12.3525C10.3984 11.7725 10.8604 11.3213 11.4727 11.3213H13.6748C14.4482 11.3213 14.8457 11.8477 14.8457 12.6641V17.2188H15.8232C16.4248 17.2188 16.8975 17.6807 16.8975 18.25C16.8975 18.8838 16.4248 19.3027 15.8232 19.3027H11.2578Z" fill="white"/>
</g>
<defs>
<clipPath id="clip0_33512_2710">
<rect width="27" height="26" fill="white"/>
</clipPath>
</defs>
</svg>
