<svg width="24" height="24" viewBox="0 0 24 24" fill="none" xmlns="http://www.w3.org/2000/svg">
<path d="M12.3096 23.6309C18.5508 23.6309 23.6855 18.4961 23.6855 12.2549C23.6855 6.00293 18.5508 0.868164 12.2988 0.868164C6.04688 0.868164 0.922852 6.00293 0.922852 12.2549C0.922852 18.4961 6.05762 23.6309 12.3096 23.6309ZM11.1172 17.6582C10.6338 17.6582 10.2363 17.4326 9.90332 17.0137L7.38965 14.0273C7.13184 13.7266 7.03516 13.4473 7.03516 13.125C7.03516 12.4482 7.58301 11.9111 8.25977 11.9111C8.64648 11.9111 8.94727 12.0723 9.2373 12.416L11.0957 14.6719L15.2529 8.07617C15.543 7.61426 15.8975 7.37793 16.3271 7.37793C16.9932 7.37793 17.5947 7.87207 17.5947 8.54883C17.5947 8.81738 17.4873 9.11816 17.2939 9.39746L12.2988 16.9922C12.0195 17.4111 11.5898 17.6582 11.1172 17.6582Z" fill="white"/>
</svg>
